,
  Hottest scene tracker on the net !!!   http://www.scenetime.com
 
         Please seed back after your download is completed

           Credit goes  to all seeders and  http://www.scenetime.com
 



...................................NFO:.................................................                                                                                                     
       
     
     
       
       
     
     
                                         
                                         
                EXVID                    
                                         
         
                                         
         Filled the Archives             
                                         
         
                                         
                With:                    
                                         
         
                                         
                                    
     E240                           
                                    
     SP               (C) 2009      
                                         
     
     
     
                                                                                  
                                                                                   
                Trash.Humpers.2009.FESTiVAL.DVDRip.XviD-EXViD                       
                                                                                   
                                                                                  
     
                                                                                               
EXViD aims to iNTERNAL those releases which have been lost in the archives.
EXViD aims to PRE non-internal releases which have poor sources and are likely skipped by others. 
http://www.imdb.com/title/tt1488163/
Subtitles: None
Date: 2010.12

Director: Harmony Korine
Genre: Drama
Plot: Follows the lives of a small group of sociopathic elderly people in Nashville, Tennessee. 

Cast
Credited cast:
Paul Booker 	Paul Booker 		
Dave Cloud 	Dave Cloud 		
Chris Crofton 	Chris Crofton 		
Charles Ezell 	Charles Ezell 	... 	
Twin
Chris Gantry 	Chris Gantry 	... 	
Singer
Kevin Guthrie 	Kevin Guthrie 		
Harmony Korine 	Harmony Korine 	... 	
Herv
Rachel Korine 	Rachel Korine 	... 	
Momma
Brian Kotzue 	Brian Kotzue 		
Brian Kotzur 	Brian Kotzur 	... 	
Buddy
Travis Nicholson 	Travis Nicholson 	... 	
Travis
Page Spain 	Page Spain 		
Full cast and crew  

Stats:
General
Format                           : AVI
Format/Info                      : Audio Video Interleave
File size                        : 695 MiB
Duration                         : 1h 14mn
Overall bit rate                 : 1 307 Kbps
Writing application              : VirtualDubMod 1.5.10.2 (build 2542/release)
Writing library                  : VirtualDubMod build 2542/release

Video
ID                               : 0
Format                           : MPEG-4 Visual
Format profile                   : Advanced Simple@L5
Format settings, BVOP            : Yes
Format settings, QPel            : No
Format settings, GMC             : No warppoints
Format settings, Matrix          : Default (H.263)
Codec ID                         : XVID
Codec ID/Hint                    : XviD
Duration                         : 1h 14mn
Bit rate                         : 1 211 Kbps
Width                            : 608 pixels
Height                           : 336 pixels
Display aspect ratio             : 16:9
Frame rate                       : 29.970 fps
Resolution                       : 8 bits
Colorimetry                      : 4:2:0
Scan type                        : Progressive
Bits/(Pixel*Frame)               : 0.198
Stream size                      : 644 MiB (93%)
Writing library                  : XviD 1.2.1 (UTC 2008-12-04)

Audio
ID                               : 1
Format                           : MPEG Audio
Format version                   : Version 1
Format profile                   : Layer 3
Codec ID                         : 55
Codec ID/Hint                    : MP3
Duration                         : 1h 14mn
Bit rate mode                    : Variable
Bit rate                         : 81.7 Kbps
Minimum bit rate                 : 32.0 Kbps
Channel(s)                       : 1 channel
Sampling rate                    : 48.0 KHz
Stream size                      : 43.5 MiB (6%)
Alignment                        : Aligned on interleaves
Interleave, duration             : 24 ms (0.72 video frame)
Interleave, preload duration     : 279 ms
Writing library                  : LAME3.98r
Encoding settings                : -m m -V 4 -q 0 -lowpass 17.5 --vbr-new -b 32




Release notes:
enjoy!

Looking for:
75TB+ Archives
                                                                                                    
Greets: CRBS EPiSODE FiCO FLS iLS KLASSiGER LiPSYNC MADE NODLABS RUNNER TNAN       
   

                                                                    ASCII DONE BY XX^NFO 2oo9